# xmcd
#
# Track frame offsets: 
#        150
#        16685
#        28827
#        42255
#        59001
#        82345
#        101291
#        125626
#        137596
#        156906
#
# Disc length: 2246 seconds
#
# Revision: 0
# Processed by: cddbd v1.5.2PL0 Copyright (c) Steve Scherf et al.
# Submitted via: ExactAudioCopy v0.90b4
#
DISCID=8408c40a
DTITLE=Corb Lund - Things That Can't Be Undone
DYEAR=2015
DGENRE=Country
TTITLE0=Weight of the Gun
TTITLE1=Run This Town
TTITLE2=Alt Berliner Blues
TTITLE3=Alice Eyes
TTITLE4=Sadr City
TTITLE5=Washed-Up Rock Star Factory Blues
TTITLE6=S Lazy H
TTITLE7=Goodbye Colorado
TTITLE8=Talk Too Much
TTITLE9=Sunbeam
EXTD=
EXTT0=
EXTT1=
EXTT2=
EXTT3=
EXTT4=
EXTT5=
EXTT6=
EXTT7=
EXTT8=
EXTT9=
PLAYORDER=
